<svg width="20.000000" height="20.000000" viewBox="0 0 20 20" fill="none" xmlns="http://www.w3.org/2000/svg" xmlns:xlink="http://www.w3.org/1999/xlink">
	<desc>
			Created with Pixso.
	</desc>
	<defs>
		<clipPath id="clip8_699">
			<rect id="Outline / Location Outline" width="20.000000" height="20.000000" fill="white" fill-opacity="0"/>
		</clipPath>
	</defs>
	<rect id="Outline / Location Outline" width="20.000000" height="20.000000" fill="#FFFFFF" fill-opacity="0"/>
	<g clip-path="url(#clip8_699)">
		<path id="Union" d="M15.74 7.55C15.31 4.03 12.41 2.44 9.68 2.6C6.96 2.77 4.25 4.69 4.2 8.24C4.19 9.36 4.54 10.49 5.05 11.54C5.57 12.6 6.25 13.59 6.92 14.45C7.6 15.31 8.28 16.04 8.78 16.55C9.06 16.84 9.34 17.11 9.64 17.38C9.84 17.56 10.15 17.56 10.35 17.38C10.65 17.11 10.93 16.84 11.21 16.55C11.72 16.04 12.39 15.31 13.07 14.45C13.74 13.59 14.42 12.6 14.94 11.54C15.45 10.49 15.8 9.36 15.79 8.24C15.78 8.03 15.77 7.8 15.74 7.55ZM9.55 15.79C9.72 15.97 9.87 16.11 10 16.23C10.12 16.11 10.27 15.97 10.44 15.79C10.92 15.3 11.57 14.6 12.22 13.78C12.86 12.96 13.49 12.03 13.96 11.07C14.43 10.11 14.72 9.14 14.7 8.25C14.7 8.09 14.69 7.9 14.66 7.68C14.31 4.85 12.03 3.55 9.75 3.68C7.46 3.82 5.33 5.39 5.29 8.25C5.27 9.14 5.56 10.11 6.03 11.07C6.5 12.03 7.13 12.96 7.78 13.78C8.42 14.6 9.07 15.3 9.55 15.79ZM10 4.95C8.09 4.95 6.54 6.5 6.54 8.41C6.54 10.32 8.09 11.87 10 11.87C11.91 11.87 13.45 10.32 13.45 8.41C13.45 6.5 11.91 4.95 10 4.95ZM7.62 8.41C7.62 7.1 8.68 6.04 10 6.04C11.31 6.04 12.37 7.1 12.37 8.41C12.37 9.72 11.31 10.79 10 10.79C8.68 10.79 7.62 9.72 7.62 8.41Z" fill="#505050" fill-opacity="1.000000" fill-rule="evenodd"/>
	</g>
</svg>
