<svg width="20.000000" height="20.000000" viewBox="0 0 20 20" fill="none" xmlns="http://www.w3.org/2000/svg" xmlns:xlink="http://www.w3.org/1999/xlink">
	<desc>
			Created with Pixso.
	</desc>
	<defs>
		<clipPath id="clip8_694">
			<rect id="Outline / Menu Outline" width="20.000000" height="20.000000" fill="white" fill-opacity="0"/>
		</clipPath>
	</defs>
	<rect id="Outline / Menu Outline" width="20.000000" height="20.000000" fill="#FFFFFF" fill-opacity="0"/>
	<g clip-path="url(#clip8_694)">
		<path id="Union" d="M3.32 4.79C3.32 4.49 3.57 4.24 3.86 4.24L16.13 4.24C16.42 4.24 16.67 4.49 16.67 4.79C16.67 5.08 16.42 5.33 16.13 5.33L3.86 5.33C3.57 5.33 3.32 5.08 3.32 4.79ZM3.86 9.45C3.57 9.45 3.32 9.7 3.32 10C3.32 10.29 3.57 10.54 3.86 10.54L16.13 10.54C16.42 10.54 16.67 10.29 16.67 10C16.67 9.7 16.42 9.45 16.13 9.45L3.86 9.45ZM3.32 15.3C3.32 15 3.57 14.76 3.86 14.76L16.13 14.76C16.42 14.76 16.67 15 16.67 15.3C16.67 15.6 16.42 15.84 16.13 15.84L3.86 15.84C3.57 15.84 3.32 15.6 3.32 15.3Z" fill="#505050" fill-opacity="1.000000" fill-rule="evenodd"/>
	</g>
</svg>
